<svg width="24" height="23" viewBox="0 0 24 23" fill="none" xmlns="http://www.w3.org/2000/svg">
<path d="M23.4995 11.5422C23.4995 5.16769 18.3509 0 11.9998 0C5.64868 0 0.5 5.16769 0.5 11.5422C0.5 16.9551 4.21305 21.4972 9.22189 22.7447V15.0696H6.85063V11.5422H9.22189V10.0224C9.22189 6.09384 10.9933 4.27294 14.8361 4.27294C15.5647 4.27294 16.8219 4.41652 17.3361 4.55965V7.75685C17.0647 7.72822 16.5932 7.71391 16.0077 7.71391C14.1222 7.71391 13.3935 8.43092 13.3935 10.2948V11.5422H17.1498L16.5045 15.0696H13.3935V23C19.0878 22.3098 23.4995 17.4436 23.4995 11.5422Z" fill="#0866FF"/>
</svg>
