<svg width="17" height="17" viewBox="0 0 17 17" fill="none" xmlns="http://www.w3.org/2000/svg">
<path fill-rule="evenodd" clip-rule="evenodd" d="M0.207466 0.207466C0.484087 -0.0691554 0.932579 -0.0691554 1.2092 0.207466L8.5 7.49826L15.7908 0.207466C16.0674 -0.0691554 16.5159 -0.0691554 16.7925 0.207466C17.0692 0.484087 17.0692 0.932579 16.7925 1.2092L9.50173 8.5L16.7925 15.7908C17.0692 16.0674 17.0692 16.5159 16.7925 16.7925C16.5159 17.0692 16.0674 17.0692 15.7908 16.7925L8.5 9.50173L1.2092 16.7925C0.932579 17.0692 0.484087 17.0692 0.207466 16.7925C-0.0691554 16.5159 -0.0691554 16.0674 0.207466 15.7908L7.49826 8.5L0.207466 1.2092C-0.0691554 0.932579 -0.0691554 0.484087 0.207466 0.207466Z" fill="black"/>
</svg>