<svg width="21" height="21" viewBox="0 0 21 21" fill="none" xmlns="http://www.w3.org/2000/svg">
<rect width="21" height="21" fill="black"/>
<path fill-rule="evenodd" clip-rule="evenodd" d="M4.15865 4.15865C4.37018 3.94712 4.71315 3.94712 4.92468 4.15865L10.5 9.73397L16.0753 4.15865C16.2869 3.94712 16.6298 3.94712 16.8414 4.15865C17.0529 4.37018 17.0529 4.71315 16.8414 4.92468L11.266 10.5L16.8414 16.0753C17.0529 16.2869 17.0529 16.6298 16.8414 16.8414C16.6298 17.0529 16.2869 17.0529 16.0753 16.8414L10.5 11.266L4.92468 16.8414C4.71315 17.0529 4.37018 17.0529 4.15865 16.8414C3.94712 16.6298 3.94712 16.2869 4.15865 16.0753L9.73397 10.5L4.15865 4.92468C3.94712 4.71315 3.94712 4.37018 4.15865 4.15865Z" fill="white"/>
</svg>
