<svg width="24" height="24" viewBox="0 0 24 24" fill="none" xmlns="http://www.w3.org/2000/svg">
<rect width="23" height="23" transform="translate(0 -0.00448608)" fill="white"/>
<path fill-rule="evenodd" clip-rule="evenodd" d="M23.04 12.2569C23.04 11.4414 22.9668 10.6573 22.8309 9.9046H12V14.353H18.1891C17.9225 15.7905 17.1123 17.0085 15.8943 17.8239V20.7094H19.6109C21.7855 18.7073 23.04 15.7591 23.04 12.2569Z" fill="#4285F4"/>
<path fill-rule="evenodd" clip-rule="evenodd" d="M12 23.4954C15.105 23.4954 17.7081 22.4656 19.6109 20.7092L15.8943 17.8238C14.8645 18.5138 13.5472 18.9215 12 18.9215C9.00474 18.9215 6.46951 16.8985 5.56519 14.1804H1.72314V17.1599C3.61542 20.9183 7.50451 23.4954 12 23.4954Z" fill="#34A853"/>
<path fill-rule="evenodd" clip-rule="evenodd" d="M5.56523 14.1806C5.33523 13.4906 5.20455 12.7535 5.20455 11.9956C5.20455 11.2376 5.33523 10.5006 5.56523 9.81057V6.83102H1.72318C0.944318 8.38352 0.5 10.1399 0.5 11.9956C0.5 13.8513 0.944318 15.6076 1.72318 17.1601L5.56523 14.1806Z" fill="#FBBC05"/>
<path fill-rule="evenodd" clip-rule="evenodd" d="M12 5.06938C13.6884 5.06938 15.2043 5.6496 16.3961 6.78915L19.6945 3.49074C17.7029 1.63506 15.0997 0.495514 12 0.495514C7.50451 0.495514 3.61542 3.07256 1.72314 6.83097L5.56519 9.81051C6.46951 7.09233 9.00474 5.06938 12 5.06938Z" fill="#EA4335"/>
</svg>
