<svg width="218" height="211" viewBox="0 0 218 211" fill="none" xmlns="http://www.w3.org/2000/svg">
<path fill-rule="evenodd" clip-rule="evenodd" d="M73.1455 72.871C74.61 69.8948 77.7159 67.9986 81.1261 67.9986H135.344C138.2 67.9986 140.88 69.3324 142.539 71.5792L146.538 76.9968C149.036 80.3812 146.532 85.0788 142.231 85.0788C141.633 85.0788 141.124 85.5001 141.032 86.0712L133.282 134.367C132.309 140.435 126.903 144.911 120.549 144.911H97.2378C90.6972 144.911 85.1941 140.176 84.4385 133.897L78.8365 87.3493C78.6807 86.055 77.5463 85.0788 76.198 85.0788C71.9923 85.0788 69.2228 80.8423 71.029 77.1719L73.1455 72.871ZM81.1261 75.3236C80.6409 75.3236 80.199 75.5934 79.9906 76.0168L78.9566 78.1181C82.871 79.1755 85.8754 82.4307 86.3655 86.503L91.9675 133.051C92.2786 135.636 94.5446 137.586 97.2378 137.586H120.549C123.165 137.586 125.391 135.743 125.792 133.244L133.542 84.9487C133.998 82.1093 135.875 79.7807 138.409 78.5975L136.368 75.833C136.132 75.5133 135.751 75.3236 135.344 75.3236H81.1261Z" fill="white"/>
<path opacity="0.6" d="M69.2879 171.974C54.1011 163.501 42.243 150.409 35.5629 134.74C28.8827 119.071 27.7562 101.706 32.3589 85.3535C36.9616 69.001 47.0347 54.5802 61.0074 44.3401C74.9801 34.1 92.0666 28.6164 109.602 28.7446C127.138 28.8727 144.137 34.6053 157.947 45.0484C171.758 55.4915 181.605 70.0579 185.951 86.4758C190.297 102.894 188.899 120.24 181.974 135.81C175.05 151.379 162.988 164.296 147.671 172.547" stroke="white" stroke-width="4"/>
<path d="M69.2848 171.978C54.0981 163.505 42.24 150.412 35.5598 134.744C28.8797 119.075 27.7531 101.71 32.3558 85.3573C36.9585 69.0048 47.0317 54.584 61.0043 44.3439C74.977 34.1038 92.0635 28.6203 109.599 28.7484" stroke="white" stroke-width="7"/>
<path fill-rule="evenodd" clip-rule="evenodd" d="M108.763 111.311C111.903 111.311 114.448 108.851 114.448 105.817C114.448 102.783 111.903 100.324 108.763 100.324C105.623 100.324 103.078 102.783 103.078 105.817C103.078 108.851 105.623 111.311 108.763 111.311ZM108.763 118.636C116.089 118.636 122.028 112.897 122.028 105.817C122.028 98.7377 116.089 92.9986 108.763 92.9986C101.437 92.9986 95.4985 98.7377 95.4985 105.817C95.4985 112.897 101.437 118.636 108.763 118.636Z" fill="white"/>
</svg>
