<svg width="146" height="46" viewBox="0 0 146 46" fill="none" xmlns="http://www.w3.org/2000/svg">
<path d="M105.906 2.60143C102.537 1.37354 98.9747 0.757377 95.3883 0.781957C83.79 0.781957 75.5987 6.62458 75.5407 15.0116C75.4683 21.1731 81.3616 24.6454 85.8197 26.7041C90.3938 28.8207 91.9233 30.1546 91.9088 32.0465C91.8798 34.9243 88.2553 36.2291 84.8846 36.2291C80.2525 36.2291 77.7227 35.584 73.83 33.9675L72.3875 33.2933L70.742 42.9489C73.5618 44.1232 78.6433 45.1308 83.8915 45.2178C96.2219 45.2178 104.283 39.4114 104.377 30.488C104.478 25.566 101.289 21.8473 94.5764 18.7738C90.4952 16.7803 87.9654 15.4465 87.9654 13.4241C87.9654 11.6336 90.1328 9.71987 94.6634 9.71987C97.6786 9.64691 100.675 10.2126 103.456 11.3799L104.544 11.8655L106.189 2.53619L105.906 2.60143ZM136.004 1.56484H126.943C124.123 1.56484 121.999 2.34047 120.767 5.13855L103.34 44.6161H115.671L118.135 38.1429L133.184 38.1573C133.539 39.6724 134.627 44.6161 134.627 44.6161H145.5L136.004 1.56484ZM58.861 1.20239H70.6115L63.2611 44.2754H51.5251L58.861 1.18789V1.20239ZM29.0317 24.9426L30.2495 30.9229L41.7318 1.56484H54.1782L35.6862 44.5581H23.2688L13.1204 8.1541C12.956 7.55383 12.57 7.03829 12.0403 6.71157C8.38247 4.82205 4.5068 3.38814 0.5 2.44195L0.659476 1.53584H19.5719C22.138 1.63732 24.2039 2.44195 24.8926 5.18204L29.0245 24.9643V24.9426H29.0317ZM121.506 29.3354L126.189 17.2877C126.131 17.4182 127.153 14.8014 127.747 13.1848L128.552 16.9035L131.27 29.3282H121.499V29.3354H121.506Z" fill="#160101"/>
</svg>
