<svg width="25" height="23" viewBox="0 0 25 23" fill="none" xmlns="http://www.w3.org/2000/svg">
<path fill-rule="evenodd" clip-rule="evenodd" d="M5.82617 15.8969C5.82617 15.2919 6.42617 14.7969 7.15951 14.7969C7.89284 14.7969 8.49284 15.2919 8.49284 15.8969C8.49284 16.5019 7.89284 16.9969 7.15951 16.9969C6.42617 16.9969 5.82617 16.5019 5.82617 15.8969ZM12.4642 14.7969H17.7975C18.5309 14.7969 19.1309 15.2919 19.1309 15.8969C19.1309 16.5019 18.5309 16.9969 17.7975 16.9969H12.4642C11.7309 16.9969 11.1309 16.5019 11.1309 15.8969C11.1309 15.2919 11.7309 14.7969 12.4642 14.7969ZM20.472 20.3016H4.47201C3.73734 20.3016 3.13867 19.8077 3.13867 19.2016V12.6016H21.8053V19.2016C21.8053 19.8077 21.2067 20.3016 20.472 20.3016M4.47201 4.89844H5.80534V5.99844C5.80534 6.60344 6.40534 7.09844 7.13867 7.09844C7.87201 7.09844 8.47201 6.60344 8.47201 5.99844V4.89844H16.472V5.99844C16.472 6.60344 17.072 7.09844 17.8053 7.09844C18.5387 7.09844 19.1387 6.60344 19.1387 5.99844V4.89844H20.472C21.2067 4.89844 21.8053 5.39234 21.8053 5.99844V10.3984H3.13867V5.99844C3.13867 5.39234 3.73734 4.89844 4.47201 4.89844M20.498 2.7H19.1647V1.6C19.1647 0.995 18.5647 0.5 17.8314 0.5C17.098 0.5 16.498 0.995 16.498 1.6V2.7H8.49805V1.6C8.49805 0.995 7.89805 0.5 7.16471 0.5C6.43138 0.5 5.83138 0.995 5.83138 1.6V2.7H4.49805C2.29271 2.7 0.498047 4.1806 0.498047 6V19.2C0.498047 21.0194 2.29271 22.5 4.49805 22.5H20.498C22.7034 22.5 24.498 21.0194 24.498 19.2V6C24.498 4.1806 22.7034 2.7 20.498 2.7" fill="black"/>
</svg>
