<svg width="24" height="22" viewBox="0 0 24 22" fill="none" xmlns="http://www.w3.org/2000/svg">
<path fill-rule="evenodd" clip-rule="evenodd" d="M5.32812 15.3969C5.32812 14.7919 5.92813 14.2969 6.66146 14.2969C7.39479 14.2969 7.99479 14.7919 7.99479 15.3969C7.99479 16.0019 7.39479 16.4969 6.66146 16.4969C5.92813 16.4969 5.32812 16.0019 5.32812 15.3969ZM11.9661 14.2969H17.2995C18.0328 14.2969 18.6328 14.7919 18.6328 15.3969C18.6328 16.0019 18.0328 16.4969 17.2995 16.4969H11.9661C11.2328 16.4969 10.6328 16.0019 10.6328 15.3969C10.6328 14.7919 11.2328 14.2969 11.9661 14.2969ZM19.974 19.8016H3.97396C3.23929 19.8016 2.64062 19.3077 2.64062 18.7016V12.1016H21.3073V18.7016C21.3073 19.3077 20.7086 19.8016 19.974 19.8016ZM3.97396 4.39844H5.30729V5.49844C5.30729 6.10344 5.90729 6.59844 6.64063 6.59844C7.37396 6.59844 7.97396 6.10344 7.97396 5.49844V4.39844H15.974V5.49844C15.974 6.10344 16.574 6.59844 17.3073 6.59844C18.0406 6.59844 18.6406 6.10344 18.6406 5.49844V4.39844H19.974C20.7086 4.39844 21.3073 4.89234 21.3073 5.49844V9.89844H2.64062V5.49844C2.64062 4.89234 3.23929 4.39844 3.97396 4.39844ZM20 2.2H18.6667V1.1C18.6667 0.495 18.0667 0 17.3333 0C16.6 0 16 0.495 16 1.1V2.2H8V1.1C8 0.495 7.4 0 6.66667 0C5.93333 0 5.33333 0.495 5.33333 1.1V2.2H4C1.79467 2.2 0 3.6806 0 5.5V18.7C0 20.5194 1.79467 22 4 22H20C22.2053 22 24 20.5194 24 18.7V5.5C24 3.6806 22.2053 2.2 20 2.2Z" fill="white"/>
</svg>
