<svg width="25" height="25" viewBox="0 0 25 25" fill="none" xmlns="http://www.w3.org/2000/svg">
<path d="M3.16895 10.8384C2.8557 10.5487 3.02585 10.025 3.44955 9.97476L9.45312 9.26295C9.62581 9.24248 9.7758 9.13368 9.84863 8.97578L12.3809 3.48591C12.5596 3.09848 13.1104 3.09843 13.2891 3.48586L15.8213 8.97585C15.8941 9.13376 16.0431 9.24249 16.2158 9.26296L22.2197 9.97476C22.6434 10.025 22.8135 10.5487 22.5002 10.8384L18.0619 14.9431C17.9342 15.0612 17.8772 15.2372 17.9111 15.4077L19.0891 21.3375C19.1723 21.756 18.7269 22.0797 18.3546 21.8713L13.0793 18.9183C12.9275 18.8334 12.7427 18.8333 12.591 18.9182L7.31507 21.8713C6.94277 22.0797 6.49693 21.7561 6.58008 21.3376L7.75836 15.4077C7.79225 15.2371 7.73532 15.0613 7.60765 14.9432L3.16895 10.8384Z" fill="#EEC952" stroke="#FFC200" stroke-width="2" stroke-linecap="round" stroke-linejoin="round"/>
</svg>
