<svg width="25" height="25" viewBox="0 0 25 25" fill="none" xmlns="http://www.w3.org/2000/svg">
<path d="M2.66895 11.1274C2.3557 10.8377 2.52585 10.3141 2.94955 10.2638L8.95312 9.55202C9.12581 9.53154 9.2758 9.42274 9.34863 9.26484L11.8809 3.77498C12.0596 3.38754 12.6104 3.38749 12.7891 3.77493L15.3213 9.26492C15.3941 9.42282 15.5431 9.53155 15.7158 9.55203L21.7197 10.2638C22.1434 10.3141 22.3135 10.8378 22.0002 11.1275L17.5619 15.2322C17.4342 15.3503 17.3772 15.5262 17.4111 15.6968L18.5891 21.6266C18.6723 22.0451 18.2269 22.3687 17.8546 22.1603L12.5793 19.2074C12.4275 19.1225 12.2427 19.1224 12.091 19.2073L6.81507 22.1604C6.44277 22.3688 5.99693 22.0451 6.08008 21.6267L7.25836 15.6967C7.29225 15.5262 7.23532 15.3503 7.10765 15.2323L2.66895 11.1274Z" fill="#EEC952" stroke="#EEC952" stroke-width="2" stroke-linecap="round" stroke-linejoin="round"/>
</svg>
