<svg width="30" height="28" viewBox="0 0 30 28" fill="none" xmlns="http://www.w3.org/2000/svg">
<path fill-rule="evenodd" clip-rule="evenodd" d="M20.8534 4.29715C20.8534 6.30239 19.1923 7.98685 16.9457 8.46103C16.9522 8.50469 16.9555 8.54917 16.9555 8.5943V10.5251C16.9626 10.5272 16.9696 10.5292 16.9766 10.5313L26.259 13.2943C27.9436 13.7958 28.7403 15.0711 28.6492 16.3045V19.9372C28.6492 21.3244 27.5756 22.556 25.984 22.9946L16.8889 25.5013C16.0888 25.7218 15.2237 25.7218 14.4236 25.5013L5.32853 22.9946C3.73685 22.556 2.66325 21.3244 2.66325 19.9372V16.3044C2.57223 15.0709 3.36896 13.7957 5.05343 13.2943L14.3359 10.5313C14.3429 10.5292 14.3499 10.5272 14.3569 10.5251V8.5943C14.3569 8.54917 14.3603 8.50469 14.3668 8.46103C12.1202 7.98685 10.459 6.30239 10.459 4.29715C10.459 1.9239 12.7859 0 15.6562 0C18.5265 0 20.8534 1.9239 20.8534 4.29715ZM14.3569 12.8086L5.93362 15.3159C5.48114 15.4505 5.25488 15.7825 5.25484 16.1143H5.26185C5.26185 16.4732 5.51817 16.7893 5.93361 16.9129L15.2162 19.6759C15.5006 19.7606 15.8119 19.7606 16.0963 19.6759L25.3789 16.9129C25.7943 16.7893 26.0506 16.4732 26.0506 16.1143H26.0577C26.0577 15.7825 25.8313 15.4505 25.3789 15.3159L16.9555 12.8086V16.1143C16.9555 16.7076 16.3738 17.1886 15.6562 17.1886C14.9386 17.1886 14.3569 16.7076 14.3569 16.1143V12.8086ZM13.0317 4.29715C13.0317 5.49562 14.2067 6.46716 15.6562 6.46716C17.1057 6.46716 18.2807 5.49562 18.2807 4.29715C18.2807 3.09869 17.1057 2.12714 15.6562 2.12714C14.2067 2.12714 13.0317 3.09869 13.0317 4.29715ZM5.26185 19.9372V18.9965L14.3359 21.6975C15.1894 21.9515 16.1232 21.9515 16.9766 21.6975L26.0506 18.9965V19.9372C26.0506 20.3995 25.6928 20.8101 25.1622 20.9563L16.0671 23.463C15.8005 23.5365 15.512 23.5365 15.2454 23.463L6.15027 20.9563C5.61971 20.8101 5.26185 20.3995 5.26185 19.9372Z" fill="white"/>
</svg>
