<svg width="218" height="210" viewBox="0 0 218 210" fill="none" xmlns="http://www.w3.org/2000/svg">
<path fill-rule="evenodd" clip-rule="evenodd" d="M72.6391 72.9427C74.1037 69.9665 77.2096 68.0703 80.6198 68.0703H134.838C137.694 68.0703 140.374 69.4041 142.032 71.651L146.031 77.0685C148.53 80.4529 146.026 85.1506 141.724 85.1506C141.126 85.1506 140.617 85.5719 140.526 86.143L132.776 134.438C131.802 140.506 126.397 144.983 120.043 144.983H96.7315C90.1909 144.983 84.6878 140.247 83.9322 133.969L78.3302 87.421C78.1744 86.1267 77.04 85.1506 75.6916 85.1506C71.486 85.1506 68.7165 80.9141 70.5226 77.2437L72.6391 72.9427ZM80.6198 75.3953C80.1346 75.3953 79.6927 75.6651 79.4843 76.0886L78.4502 78.1898C82.3647 79.2473 85.3691 82.5024 85.8592 86.5748L91.4612 133.123C91.7723 135.708 94.0383 137.658 96.7315 137.658H120.043C122.659 137.658 124.885 135.815 125.286 133.316L133.036 85.0205C133.491 82.1811 135.369 79.8524 137.902 78.6693L135.862 75.9048C135.626 75.5851 135.244 75.3953 134.838 75.3953H80.6198Z" fill="white"/>
<path fill-rule="evenodd" clip-rule="evenodd" d="M108.632 112.023C111.771 112.023 114.317 109.564 114.317 106.53C114.317 103.496 111.771 101.036 108.632 101.036C105.492 101.036 102.947 103.496 102.947 106.53C102.947 109.564 105.492 112.023 108.632 112.023ZM108.632 119.348C115.958 119.348 121.896 113.609 121.896 106.53C121.896 99.4501 115.958 93.7109 108.632 93.7109C101.306 93.7109 95.3672 99.4501 95.3672 106.53C95.3672 113.609 101.306 119.348 108.632 119.348Z" fill="white"/>
<path opacity="0.6" d="M69.2862 171.413C54.0994 162.94 42.2413 149.848 35.5612 134.179C28.881 118.51 27.7545 101.145 32.3572 84.7926C36.9599 68.4401 47.033 54.0192 61.0057 43.7791C74.9783 33.5391 92.0649 28.0555 109.601 28.1836C127.136 28.3117 144.135 34.0444 157.946 44.4875C171.757 54.9306 181.603 69.497 185.949 85.9149C190.295 102.333 188.897 119.679 181.973 135.249C175.048 150.818 162.986 163.735 147.669 171.986" stroke="white" stroke-width="4"/>
<path d="M69.2831 171.417C54.0964 162.944 42.2383 149.852 35.5581 134.183C28.878 118.514 27.7514 101.149 32.3541 84.7964C36.9568 68.4439 47.03 54.023 61.0026 43.783C74.9752 33.5429 92.0618 28.0593 109.597 28.1875" stroke="white" stroke-width="7"/>
</svg>
