<svg width="24" height="23" viewBox="0 0 24 23" fill="none" xmlns="http://www.w3.org/2000/svg">
<path d="M16.9609 8.29802C18.44 9.35907 20.2519 9.98336 22.2088 9.98336V6.2042C21.8384 6.20428 21.469 6.16552 21.1067 6.08848V9.06322C19.1499 9.06322 17.3383 8.43892 15.8588 7.37796V15.0901C15.8588 18.9481 12.7424 22.0754 8.89833 22.0754C7.46401 22.0754 6.13087 21.6403 5.02344 20.894C6.28739 22.1909 8.05008 22.9955 10.0002 22.9955C13.8445 22.9955 16.9611 19.8682 16.9611 16.01V8.29802H16.9609V8.29802ZM18.3205 4.48532C17.5646 3.65658 17.0683 2.5856 16.9609 1.40158V0.915497H15.9165C16.1794 2.42039 17.0761 3.70608 18.3205 4.48532ZM7.45481 17.9334C7.0325 17.3777 6.80428 16.6979 6.8053 15.999C6.8053 14.2345 8.23073 12.8038 9.98933 12.8038C10.3171 12.8037 10.6429 12.8541 10.9552 12.9535V9.0899C10.5902 9.0397 10.2218 9.01838 9.85357 9.0262V12.0335C9.541 11.934 9.21506 11.8835 8.88724 11.8838C7.12864 11.8838 5.70329 13.3143 5.70329 15.0791C5.70329 16.3269 6.41577 17.4072 7.45481 17.9334Z" fill="#FF004F"/>
<path d="M15.8588 7.37788C17.3382 8.43884 19.1499 9.06314 21.1066 9.06314V6.08841C20.0144 5.85492 19.0474 5.28209 18.3204 4.48532C17.0759 3.706 16.1793 2.42031 15.9165 0.915497H13.1731V16.0099C13.1669 17.7696 11.7439 19.1944 9.98911 19.1944C8.95502 19.1944 8.03634 18.6997 7.45452 17.9334C6.41555 17.4072 5.70307 16.3268 5.70307 15.0791C5.70307 13.3146 7.12843 11.8839 8.88702 11.8839C9.22396 11.8839 9.54872 11.9365 9.85335 12.0335V9.02628C6.07681 9.10458 3.03955 12.2013 3.03955 16.0099C3.03955 17.9112 3.7959 19.6347 5.02346 20.894C6.13089 21.6403 7.46403 22.0755 8.89834 22.0755C12.7425 22.0755 15.8588 18.9481 15.8588 15.0901V7.37788H15.8588Z" fill="black"/>
<path d="M21.1066 6.08841V5.28406C20.1216 5.28556 19.156 5.00874 18.3204 4.48524C19.0601 5.29803 20.0342 5.85847 21.1066 6.08841ZM15.9164 0.915498C15.8913 0.771679 15.8721 0.626913 15.8587 0.481594V-0.00448608H12.0709V15.09C12.0649 16.8495 10.642 18.2743 8.88698 18.2743C8.37175 18.2743 7.88528 18.1516 7.45448 17.9335C8.0363 18.6997 8.95499 19.1943 9.98908 19.1943C11.7437 19.1943 13.167 17.7696 13.1731 16.0099V0.915498H15.9164ZM9.85347 9.02628V8.16999C9.53697 8.12658 9.21787 8.10479 8.89838 8.10495C5.05392 8.10487 1.9375 11.2323 1.9375 15.09C1.9375 17.5086 3.16231 19.6401 5.0235 20.8939C3.79594 19.6346 3.03959 17.911 3.03959 16.0099C3.03959 12.2013 6.07677 9.10458 9.85347 9.02628Z" fill="#00F2EA"/>
</svg>
