<svg width="23" height="23" viewBox="0 0 23 23" fill="none" xmlns="http://www.w3.org/2000/svg">
<path d="M11.5068 2.0709C14.5795 2.0709 14.9434 2.08437 16.1518 2.13828C17.2748 2.1877 17.8813 2.37637 18.2855 2.53359C18.8201 2.74023 19.2064 2.9918 19.6062 3.3916C20.0105 3.7959 20.2576 4.17773 20.4643 4.7123C20.6215 5.1166 20.8102 5.72754 20.8596 6.84609C20.9135 8.05898 20.927 8.42285 20.927 11.491C20.927 14.5637 20.9135 14.9275 20.8596 16.1359C20.8102 17.259 20.6215 17.8654 20.4643 18.2697C20.2576 18.8043 20.0061 19.1906 19.6062 19.5904C19.202 19.9947 18.8201 20.2418 18.2855 20.4484C17.8813 20.6057 17.2703 20.7943 16.1518 20.8437C14.9389 20.8977 14.575 20.9111 11.5068 20.9111C8.43418 20.9111 8.07031 20.8977 6.86191 20.8437C5.73887 20.7943 5.13242 20.6057 4.72813 20.4484C4.19355 20.2418 3.80723 19.9902 3.40742 19.5904C3.00313 19.1861 2.75605 18.8043 2.54941 18.2697C2.39219 17.8654 2.20352 17.2545 2.1541 16.1359C2.1002 14.923 2.08672 14.5592 2.08672 11.491C2.08672 8.41836 2.1002 8.05449 2.1541 6.84609C2.20352 5.72305 2.39219 5.1166 2.54941 4.7123C2.75605 4.17773 3.00762 3.79141 3.40742 3.3916C3.81172 2.9873 4.19355 2.74023 4.72813 2.53359C5.13242 2.37637 5.74336 2.1877 6.86191 2.13828C8.07031 2.08437 8.43418 2.0709 11.5068 2.0709ZM11.5068 0C8.38477 0 7.99395 0.0134766 6.76758 0.0673828C5.5457 0.121289 4.70566 0.318945 3.97793 0.601953C3.21875 0.898437 2.57637 1.28926 1.93848 1.93164C1.29609 2.56953 0.905273 3.21191 0.608789 3.9666C0.325781 4.69883 0.128125 5.53437 0.0742188 6.75625C0.0203125 7.98711 0.00683594 8.37793 0.00683594 11.5C0.00683594 14.6221 0.0203125 15.0129 0.0742188 16.2393C0.128125 17.4611 0.325781 18.3012 0.608789 19.0289C0.905273 19.7881 1.29609 20.4305 1.93848 21.0684C2.57637 21.7062 3.21875 22.1016 3.97344 22.3936C4.70566 22.6766 5.54121 22.8742 6.76309 22.9281C7.98945 22.982 8.38027 22.9955 11.5023 22.9955C14.6244 22.9955 15.0152 22.982 16.2416 22.9281C17.4635 22.8742 18.3035 22.6766 19.0313 22.3936C19.7859 22.1016 20.4283 21.7062 21.0662 21.0684C21.7041 20.4305 22.0994 19.7881 22.3914 19.0334C22.6744 18.3012 22.8721 17.4656 22.926 16.2438C22.9799 15.0174 22.9934 14.6266 22.9934 11.5045C22.9934 8.38242 22.9799 7.9916 22.926 6.76523C22.8721 5.54336 22.6744 4.70332 22.3914 3.97559C22.1084 3.21191 21.7176 2.56953 21.0752 1.93164C20.4373 1.29375 19.7949 0.898437 19.0402 0.606445C18.308 0.323437 17.4725 0.125781 16.2506 0.071875C15.0197 0.0134766 14.6289 0 11.5068 0Z" fill="#000100"/>
</svg>
