<svg width="146" height="45" viewBox="0 0 146 45" fill="none" xmlns="http://www.w3.org/2000/svg">
<path d="M105.906 1.82018C102.537 0.59229 98.9747 -0.0238735 95.3883 0.000707457C83.79 0.000707457 75.5987 5.84333 75.5407 14.2303C75.4683 20.3919 81.3616 23.8641 85.8197 25.9228C90.3938 28.0395 91.9233 29.3733 91.9088 31.2653C91.8798 34.1431 88.2553 35.4479 84.8846 35.4479C80.2525 35.4479 77.7227 34.8027 73.83 33.1862L72.3875 32.5121L70.742 42.1676C73.5618 43.342 78.6433 44.3496 83.8915 44.4365C96.2219 44.4365 104.283 38.6302 104.377 29.7068C104.478 24.7847 101.289 21.066 94.5764 17.9925C90.4952 15.9991 87.9654 14.6653 87.9654 12.6428C87.9654 10.8523 90.1328 8.93862 94.6634 8.93862C97.6786 8.86566 100.675 9.43138 103.456 10.5986L104.544 11.0843L106.189 1.75494L105.906 1.82018ZM136.004 0.783589H126.943C124.123 0.783589 121.999 1.55922 120.767 4.3573L103.34 43.8349H115.671L118.135 37.3616L133.184 37.3761C133.539 38.8911 134.627 43.8349 134.627 43.8349H145.5L136.004 0.783589ZM58.861 0.421142H70.6115L63.2611 43.4942H51.5251L58.861 0.406645V0.421142ZM29.0317 24.1613L30.2495 30.1417L41.7318 0.783589H54.1782L35.6862 43.7769H23.2688L13.1204 7.37285C12.956 6.77258 12.57 6.25704 12.0403 5.93032C8.38247 4.0408 4.5068 2.60689 0.5 1.6607L0.659476 0.754588H19.5719C22.138 0.856073 24.2039 1.6607 24.8926 4.40079L29.0245 24.1831V24.1613H29.0317ZM121.506 28.5542L126.189 16.5065C126.131 16.637 127.153 14.0201 127.747 12.4036L128.552 16.1223L131.27 28.5469H121.499V28.5542H121.506Z" fill="black"/>
</svg>
