<svg width="16" height="15" viewBox="0 0 16 15" fill="none" xmlns="http://www.w3.org/2000/svg">
<path d="M1.6 15V7.14286H0V2.85714H4.16C4.09333 2.75 4.05013 2.6369 4.0304 2.51786C4.01067 2.39881 4.00053 2.27381 4 2.14286C4 1.54762 4.23333 1.04167 4.7 0.625C5.16667 0.208333 5.73333 0 6.4 0C6.70667 0 6.99333 0.0507143 7.26 0.152143C7.52667 0.253571 7.77333 0.393333 8 0.571429C8.22667 0.380952 8.47333 0.238095 8.74 0.142857C9.00667 0.0476191 9.29333 0 9.6 0C10.2667 0 10.8333 0.208333 11.3 0.625C11.7667 1.04167 12 1.54762 12 2.14286C12 2.27381 11.9867 2.39595 11.96 2.50929C11.9333 2.62262 11.8933 2.73857 11.84 2.85714H16V7.14286H14.4V15H1.6ZM9.6 1.42857C9.37333 1.42857 9.18347 1.49714 9.0304 1.63429C8.87733 1.77143 8.80053 1.94095 8.8 2.14286C8.79947 2.34476 8.87627 2.51452 9.0304 2.65214C9.18453 2.78976 9.3744 2.8581 9.6 2.85714C9.8256 2.85619 10.0157 2.78762 10.1704 2.65143C10.3251 2.51524 10.4016 2.34571 10.4 2.14286C10.3984 1.94 10.3216 1.77048 10.1696 1.63429C10.0176 1.4981 9.82773 1.42952 9.6 1.42857ZM5.6 2.14286C5.6 2.34524 5.6768 2.515 5.8304 2.65214C5.984 2.78929 6.17387 2.85762 6.4 2.85714C6.62613 2.85667 6.81627 2.7881 6.9704 2.65143C7.12453 2.51476 7.20107 2.34524 7.2 2.14286C7.19893 1.94048 7.12213 1.77095 6.9696 1.63429C6.81707 1.49762 6.6272 1.42905 6.4 1.42857C6.1728 1.4281 5.98293 1.49667 5.8304 1.63429C5.67787 1.7719 5.60107 1.94143 5.6 2.14286ZM1.6 4.28571V5.71429H7.2V4.28571H1.6ZM7.2 13.5714V7.14286H3.2V13.5714H7.2ZM8.8 13.5714H12.8V7.14286H8.8V13.5714ZM14.4 5.71429V4.28571H8.8V5.71429H14.4Z" fill="black"/>
</svg>
